<svg width="30" height="31" viewBox="0 0 30 31" fill="none" xmlns="http://www.w3.org/2000/svg">
<path d="M15 30.5C23.0245 30.5 29.5 23.7676 29.5 15.5C29.5 7.23241 23.0245 0.5 15 0.5C6.97548 0.5 0.5 7.23241 0.5 15.5C0.5 23.7676 6.97548 30.5 15 30.5Z" fill="#FFABAB" stroke="#494949"/>
<path d="M23.002 15.05C23.002 10.604 19.42 7 15.002 7C10.582 7.001 7 10.604 7 15.051C7 19.068 9.926 22.398 13.75 23.002V17.377H11.72V15.051H13.752V13.276C13.752 11.259 14.947 10.145 16.774 10.145C17.65 10.145 18.565 10.302 18.565 10.302V12.282H17.556C16.563 12.282 16.253 12.903 16.253 13.54V15.05H18.471L18.117 17.376H16.252V23.001C20.076 22.397 23.002 19.067 23.002 15.05Z" fill="#494949"/>
</svg>
