<svg width="30" height="31" viewBox="0 0 30 31" fill="none" xmlns="http://www.w3.org/2000/svg">
<path d="M15 30.5C23.0245 30.5 29.5 23.7676 29.5 15.5C29.5 7.23241 23.0245 0.5 15 0.5C6.97548 0.5 0.5 7.23241 0.5 15.5C0.5 23.7676 6.97548 30.5 15 30.5Z" fill="#FFABAB" stroke="#494949"/>
<path d="M15 7C12.829 7 12.556 7.01 11.703 7.048C10.85 7.088 10.269 7.222 9.76 7.42C9.22584 7.62033 8.74214 7.9354 8.343 8.343C7.9354 8.74214 7.62033 9.22584 7.42 9.76C7.222 10.268 7.087 10.85 7.048 11.7C7.01 12.555 7 12.827 7 15.001C7 17.173 7.01 17.445 7.048 18.298C7.088 19.15 7.222 19.731 7.42 20.24C7.625 20.766 7.898 21.212 8.343 21.657C8.787 22.102 9.233 22.376 9.759 22.58C10.269 22.778 10.849 22.913 11.701 22.952C12.555 22.99 12.827 23 15 23C17.173 23 17.444 22.99 18.298 22.952C19.149 22.912 19.732 22.778 20.241 22.58C20.7748 22.3795 21.2581 22.0645 21.657 21.657C22.102 21.212 22.375 20.766 22.58 20.24C22.777 19.731 22.912 19.15 22.952 18.298C22.99 17.445 23 17.173 23 15C23 12.827 22.99 12.555 22.952 11.701C22.912 10.85 22.777 10.268 22.58 9.76C22.3797 9.22584 22.0646 8.74214 21.657 8.343C21.2579 7.9354 20.7742 7.62033 20.24 7.42C19.73 7.222 19.148 7.087 18.297 7.048C17.443 7.01 17.172 7 14.998 7H15ZM14.283 8.442H15.001C17.137 8.442 17.39 8.449 18.233 8.488C19.013 8.523 19.437 8.654 19.719 8.763C20.092 8.908 20.359 9.082 20.639 9.362C20.919 9.642 21.092 9.908 21.237 10.282C21.347 10.563 21.477 10.987 21.512 11.767C21.551 12.61 21.559 12.863 21.559 14.998C21.559 17.133 21.551 17.387 21.512 18.23C21.477 19.01 21.346 19.433 21.237 19.715C21.1078 20.0619 20.9032 20.3758 20.638 20.634C20.358 20.914 20.092 21.087 19.718 21.232C19.438 21.342 19.014 21.472 18.233 21.508C17.39 21.546 17.137 21.555 15.001 21.555C12.865 21.555 12.611 21.546 11.768 21.508C10.988 21.472 10.565 21.342 10.283 21.232C9.93583 21.1033 9.6216 20.899 9.363 20.634C9.09727 20.3756 8.89233 20.0614 8.763 19.714C8.654 19.433 8.523 19.009 8.488 18.229C8.45 17.386 8.442 17.133 8.442 14.996C8.442 12.859 8.45 12.608 8.488 11.765C8.524 10.985 8.654 10.561 8.764 10.279C8.909 9.906 9.083 9.639 9.363 9.359C9.643 9.079 9.909 8.906 10.283 8.761C10.565 8.651 10.988 8.521 11.768 8.485C12.506 8.451 12.792 8.441 14.283 8.44V8.442ZM19.271 9.77C19.1449 9.77 19.0201 9.79483 18.9036 9.84308C18.7872 9.89132 18.6813 9.96203 18.5922 10.0512C18.503 10.1403 18.4323 10.2462 18.3841 10.3626C18.3358 10.4791 18.311 10.6039 18.311 10.73C18.311 10.8561 18.3358 10.9809 18.3841 11.0974C18.4323 11.2138 18.503 11.3197 18.5922 11.4088C18.6813 11.498 18.7872 11.5687 18.9036 11.6169C19.0201 11.6652 19.1449 11.69 19.271 11.69C19.5256 11.69 19.7698 11.5889 19.9498 11.4088C20.1299 11.2288 20.231 10.9846 20.231 10.73C20.231 10.4754 20.1299 10.2312 19.9498 10.0512C19.7698 9.87114 19.5256 9.77 19.271 9.77ZM15.001 10.892C14.4561 10.8835 13.9149 10.9835 13.409 11.1861C12.9031 11.3888 12.4425 11.6901 12.0542 12.0724C11.6658 12.4548 11.3574 12.9106 11.1468 13.4133C10.9363 13.916 10.8279 14.4555 10.8279 15.0005C10.8279 15.5455 10.9363 16.085 11.1468 16.5877C11.3574 17.0904 11.6658 17.5462 12.0542 17.9286C12.4425 18.3109 12.9031 18.6122 13.409 18.8149C13.9149 19.0175 14.4561 19.1175 15.001 19.109C16.0795 19.0922 17.1082 18.6519 17.865 17.8833C18.6217 17.1146 19.0459 16.0792 19.0459 15.0005C19.0459 13.9218 18.6217 12.8864 17.865 12.1177C17.1082 11.3491 16.0795 10.9088 15.001 10.892ZM15.001 12.333C15.3512 12.333 15.698 12.402 16.0216 12.536C16.3452 12.67 16.6392 12.8665 16.8869 13.1141C17.1345 13.3618 17.331 13.6558 17.465 13.9794C17.599 14.303 17.668 14.6498 17.668 15C17.668 15.3502 17.599 15.697 17.465 16.0206C17.331 16.3442 17.1345 16.6382 16.8869 16.8859C16.6392 17.1335 16.3452 17.33 16.0216 17.464C15.698 17.598 15.3512 17.667 15.001 17.667C14.2937 17.667 13.6153 17.386 13.1151 16.8859C12.615 16.3857 12.334 15.7073 12.334 15C12.334 14.2927 12.615 13.6143 13.1151 13.1141C13.6153 12.614 14.2937 12.333 15.001 12.333Z" fill="#494949"/>
</svg>
