<svg width="408" height="397" viewBox="0 0 408 397" fill="none" xmlns="http://www.w3.org/2000/svg">
<path d="M97.8823 0H309.905C363.932 0 407.787 43.75 407.787 97.8333V299.167C407.787 353.167 364.015 397 309.905 397H97.8823C43.8553 397 0 353.25 0 299.167V97.8333C0 43.8333 43.8553 0 97.8823 0Z" fill="white"/>
<path d="M199.097 374.467C198.851 374.309 198.584 374.092 198.296 373.875C193.716 368.699 165.38 336.33 136.51 294.817C127.842 281.588 122.224 271.268 123.313 268.6C126.137 261.665 176.472 257.855 191.97 264.149C196.684 266.066 196.561 268.584 196.561 270.059C196.561 276.411 196.221 293.458 196.221 293.458C196.221 296.976 199.354 299.835 203.226 299.827C207.098 299.827 210.22 296.951 210.21 293.417L210.138 250.97H210.128C210.128 247.277 205.712 246.36 204.89 246.21C196.797 246.16 180.375 246.127 162.73 246.127C123.805 246.127 115.097 247.586 108.503 243.634C94.176 235.09 70.7494 177.513 70.2051 145.111C69.4348 99.4054 99.1158 59.843 140.937 40.2393C158.396 32.2226 178.115 27.6995 198.964 27.6995C265.146 27.6995 319.661 73.2555 326.912 131.866C326.912 131.916 326.912 131.982 326.922 132.032C328.257 146.195 242.613 149.204 225.677 145.086C223.079 144.453 222.421 142.019 222.421 140.985C222.411 130.215 222.329 99.8889 222.329 99.8889C222.319 96.3544 219.176 93.5118 215.304 93.5118C211.442 93.5118 208.31 96.3878 208.31 99.9139L208.465 155.773C208.587 159.291 211.822 160.233 212.716 160.408C222.35 160.408 244.873 160.4 265.855 160.4C294.212 160.4 306.124 163.392 314.054 168.886C319.322 172.553 321.356 179.564 319.579 188.692C303.67 269.792 202.918 370.291 199.128 374.475L199.097 374.467Z" fill="#FC8019"/>
</svg>
