<svg width="28" height="29" viewBox="0 0 28 29" fill="none" xmlns="http://www.w3.org/2000/svg">
<path d="M27.5 14.5C27.5 22.2487 21.4395 28.5 14 28.5C6.56055 28.5 0.5 22.2487 0.5 14.5C0.5 6.75133 6.56055 0.5 14 0.5C21.4395 0.5 27.5 6.75133 27.5 14.5Z" fill="#FFABAB" stroke="#494949"/>
<path d="M19.601 8.32606C18.8676 7.58555 17.9941 6.9985 17.0314 6.59915C16.0688 6.1998 15.0362 5.99614 13.994 6.00006C9.627 6.00006 6.068 9.55806 6.064 13.9261C6.064 15.3251 6.43 16.6861 7.121 17.8911L6 22.0001L10.204 20.8981C11.3665 21.5323 12.6698 21.8641 13.994 21.8631H13.998C18.366 21.8631 21.924 18.3051 21.928 13.9331C21.9289 12.8911 21.7237 11.8593 21.3241 10.897C20.9246 9.9347 20.3396 9.06095 19.601 8.32606ZM13.994 20.5211C12.8132 20.5201 11.6542 20.2024 10.638 19.6011L10.398 19.4571L7.904 20.1111L8.57 17.6781L8.414 17.4271C7.75381 16.3774 7.40465 15.1621 7.407 13.9221C7.407 10.2961 10.364 7.33806 13.998 7.33806C14.8637 7.3365 15.7212 7.50633 16.521 7.83775C17.3208 8.16916 18.0471 8.65562 18.658 9.26906C19.2709 9.8802 19.7568 10.6066 20.0877 11.4064C20.4186 12.2062 20.5879 13.0635 20.586 13.9291C20.582 17.5681 17.625 20.5211 13.994 20.5211ZM17.609 15.5871C17.412 15.4881 16.439 15.0091 16.256 14.9411C16.074 14.8761 15.941 14.8421 15.811 15.0401C15.678 15.2371 15.298 15.6861 15.184 15.8151C15.07 15.9481 14.952 15.9631 14.754 15.8651C14.557 15.7651 13.918 15.5571 13.162 14.8801C12.572 14.3551 12.177 13.7051 12.059 13.5081C11.945 13.3101 12.048 13.2041 12.147 13.1051C12.234 13.0171 12.344 12.8731 12.443 12.7591C12.543 12.6451 12.576 12.5611 12.641 12.4291C12.706 12.2951 12.675 12.1811 12.626 12.0821C12.576 11.9831 12.181 11.0061 12.014 10.6121C11.854 10.2231 11.691 10.2771 11.569 10.2721C11.455 10.2651 11.322 10.2651 11.189 10.2651C11.0886 10.2676 10.9898 10.2909 10.8987 10.3334C10.8077 10.3759 10.7264 10.4367 10.66 10.5121C10.478 10.7101 9.969 11.1891 9.969 12.1661C9.969 13.1431 10.679 14.0821 10.779 14.2151C10.877 14.3481 12.173 16.3471 14.162 17.2071C14.632 17.4121 15.002 17.5331 15.291 17.6251C15.766 17.7771 16.195 17.7541 16.537 17.7051C16.917 17.6471 17.708 17.2251 17.875 16.7621C18.039 16.2981 18.039 15.9021 17.989 15.8191C17.94 15.7351 17.807 15.6861 17.609 15.5871Z" fill="#494949"/>
</svg>
