<?xml version="1.0" encoding="utf-8"?>
<!-- Generator: Adobe Illustrator 26.0.3, SVG Export Plug-In . SVG Version: 6.00 Build 0)  -->
<svg version="1.0" id="katman_1" xmlns="http://www.w3.org/2000/svg" xmlns:xlink="http://www.w3.org/1999/xlink" x="0px" y="0px"
	 viewBox="0 0 800 600" style="enable-background:new 0 0 800 600;" xml:space="preserve" >
<style type="text/css">
	.st0{fill:#E23744;}
	.st1{fill:#FFFFFF;}
</style>
<path class="st0" d="M272.7,61.4H527c64.8,0,117.4,52.5,117.4,117.4v241.6c0,64.8-52.5,117.4-117.4,117.4H272.7
	c-64.8,0-117.4-52.5-117.4-117.4V178.8C155.3,114,207.9,61.4,272.7,61.4z"/>
<g>
	<path class="st1" d="M262.9,280.3l-0.4,10.8l-29,30.7c12.1,0,19.8-0.1,24.2-0.3c-1.3,5.8-2.4,10.6-3.4,17.7
		c-5.8-0.5-14.9-0.6-24-0.6c-10.2,0-19,0.1-26.1,0.6l0.3-10.9l29-30.5c-12.7,0-17.3,0.1-22.6,0.3c1.1-5.5,2-11.5,2.8-17.6
		c9.3,0.2,13,0.3,24.9,0.3C249.7,280.8,255.9,280.6,262.9,280.3z M283.5,314.2c0,7.3,2.5,10.9,6.7,10.9c5.6,0,10-8.8,10-19.5
		c0-7.3-2.5-10.9-6.5-10.9C288.1,294.7,283.5,303.4,283.5,314.2z M321.6,304.7c0,19.7-14.3,36.2-33.3,36.2c-17,0-25.7-11.3-25.7-26
		c0-19.6,14.4-36,33.3-36C313.1,278.9,321.6,290.2,321.6,304.7z M549.6,314.2c0,7.3,2.5,10.9,6.7,10.9c5.6,0,10-8.8,10-19.5
		c0-7.3-2.5-10.9-6.5-10.9C554.1,294.7,549.6,303.4,549.6,314.2z M588.3,304.4c0,20-14.5,36.6-33.7,36.6c-17.3,0-26-11.4-26-26.4
		c0-19.9,14.6-36.5,33.7-36.5C579.8,278.1,588.3,289.6,588.3,304.4z M419.4,298c1.5-10.2,0.7-19.3-10.9-19.3
		c-8.4,0-17.4,6.9-23.8,18.4c1.4-9.6,0.6-18.4-10.9-18.4c-8.6,0-18,7.3-24.3,19.3c1.7-7.8,1.3-16.8,0.8-18.7
		c-6.7,1.1-12.4,1.7-20.6,1.9c0.3,5.5-0.1,12.6-1.1,19.4l-2.7,17.8c-1.1,7-2.2,15.1-3.4,20.2h21.6c0.1-3.1,1-7.9,1.5-12.3l1.8-12.3
		c1.5-7.9,8.1-17.4,13.1-17.4c2.9,0,2.8,2.7,2,7.8l-2.1,13.8c-1.1,7-2.2,15.1-3.4,20.2h21.9c0.1-3.1,0.8-7.9,1.4-12.3l1.8-12.3
		c1.5-7.9,8.1-17.4,13-17.4c2.9,0,2.8,2.6,2.4,6.1l-5.3,35.7h20L419.4,298z M523.9,321.9l-2.4,14.1c-3.6,1.9-10.3,4.6-18.1,4.6
		c-13.2,0-15.9-6.9-13.8-21.5l3.4-23.5h-6.6l1.8-15.3l7.1-0.3l2.7-11.1l20.1-7.3l-2.5,18.4h13.8c-0.4,1.9-2.1,12.4-2.5,15.6h-13.5
		l-3.1,21.8c-0.8,5.6-0.3,7.6,3.6,7.6C517,324.9,521.3,323.2,523.9,321.9z"/>
	<path class="st1" d="M447.6,328.5c7.4-0.9,12.3-7.8,13.6-14.6l0.2-1.9c-3.2-0.7-7.7-1.2-12.1-0.7c-4.2,0.5-7.7,2.2-9.5,4.7
		c-1.4,1.8-2.1,3.9-1.8,6.4C438.3,326.2,442.6,329.1,447.6,328.5z M441.3,339.5c-10.3,1.3-17.2-2.7-19.2-11.9
		c-1.3-5.7,0.5-12.2,3.6-16.1c4.2-5.1,10.9-8.4,19.3-9.4c6.7-0.8,12.3-0.4,17.5,0.6l0.3-0.9c0.2-1.4,0.3-2.8,0.1-4.5
		c-0.5-4.3-4-6.9-12.6-5.9c-5.8,0.7-11.4,2.7-15.7,5l-4.2-12.3c5.8-3.2,13.1-5.7,21.5-6.7c16-2,27.3,3.1,28.7,14.5
		c0.3,3.1,0.4,6.3,0,9.2c-2.1,14.2-3.4,24.8-3.9,32c-0.1,1.1-0.1,3,0,5.7h-19.9c0.4-1.1,0.8-2.6,1.1-4.5c0.3-1.3,0.4-2.8,0.5-4.8
		C454.3,335.2,448.6,338.6,441.3,339.5z"/>
</g>
</svg>
