<svg width="232" height="107" viewBox="0 0 232 107" fill="none" xmlns="http://www.w3.org/2000/svg">
<ellipse cx="116" cy="53.5" rx="116" ry="53.5" fill="#FF0000"/>
<path d="M65.792 65.04C65.2373 64.3147 64.768 63.5253 64.384 62.672C64 61.776 63.5947 60.7093 63.168 59.472C63.0827 59.2587 62.8267 58.6187 62.4 57.552C62.016 56.4853 61.568 55.568 61.056 54.8C58.368 55.184 56.1707 55.376 54.464 55.376C53.5253 55.376 52.48 55.3547 51.328 55.312C50.2187 55.2267 49.3867 55.184 48.832 55.184C46.6987 55.0133 44.992 54.928 43.712 54.928C43.2 55.6107 42.752 56.336 42.368 57.104C42.0267 57.872 41.5787 59.024 41.024 60.56C40.256 62.7787 39.5947 64.3573 39.04 65.296C38.656 65.936 37.9093 66.256 36.8 66.256C35.8613 66.256 34.9867 66.064 34.176 65.68C33.408 65.2533 33.024 64.6773 33.024 63.952C33.3653 62.3307 33.8987 60.624 34.624 58.832C35.392 56.9973 36.48 54.5653 37.888 51.536L40.448 45.264C41.856 41.68 43.136 38.608 44.288 36.048C45.4827 33.488 47.04 30.4587 48.96 26.96C49.216 26.448 49.6427 26.0213 50.24 25.68C50.8373 25.296 51.4987 25.104 52.224 25.104C53.0347 25.104 53.6107 25.168 53.952 25.296C54.336 25.3813 54.6347 25.552 54.848 25.808C55.0613 26.0213 55.3813 26.4907 55.808 27.216C57.2587 29.4773 58.496 31.8027 59.52 34.192C60.5867 36.5813 61.9307 39.888 63.552 44.112L64.896 47.504C66.0907 50.576 67.1147 53.1573 67.968 55.248C68.864 57.296 69.8453 59.1733 70.912 60.88C71.5947 61.9893 71.936 62.7573 71.936 63.184C71.936 64.208 71.616 64.9973 70.976 65.552C70.3787 66.064 69.5893 66.32 68.608 66.32C67.3707 66.32 66.432 65.8933 65.792 65.04ZM59.2 49.552C58.5173 48.1013 57.536 45.584 56.256 42C54.9333 38.16 53.6107 35.1093 52.288 32.848C51.4773 34.896 50.2827 37.5413 48.704 40.784C47.6373 42.7893 46.4213 45.6907 45.056 49.488C47.7867 49.8293 50.7307 50 53.888 50C56.1493 50 57.92 49.8507 59.2 49.552ZM104.298 30.032C104.298 28.7947 104.575 27.728 105.13 26.832C105.727 25.8933 106.602 25.424 107.754 25.424C108.735 25.424 109.61 25.616 110.378 26C111.146 26.384 111.53 27.024 111.53 27.92C111.53 29.6693 111.444 32.1227 111.274 35.28C111.103 38.352 111.018 40.6347 111.018 42.128C111.018 44.4747 111.103 47.6107 111.274 51.536C111.444 55.2907 111.53 58.0427 111.53 59.792C111.53 61.2 111.508 62.2453 111.466 62.928C111.466 63.6107 111.082 64.2933 110.314 64.976C109.588 65.616 108.458 65.936 106.922 65.936C106.111 65.936 105.407 65.808 104.81 65.552C104.255 65.2533 103.871 64.9333 103.658 64.592C101.652 62.16 98.7295 58.0213 94.8895 52.176C90.5802 45.648 87.0602 40.656 84.3295 37.2C84.6708 40.272 84.8415 44.0267 84.8415 48.464C84.8415 50.4267 84.7988 52.9867 84.7135 56.144C84.6708 59.2587 84.5855 61.3067 84.4575 62.288C84.2868 63.5253 83.9028 64.4853 83.3055 65.168C82.7508 65.808 81.8548 66.128 80.6175 66.128C79.6788 66.128 78.9748 65.872 78.5055 65.36C78.0788 64.8053 77.8228 63.8667 77.7375 62.544C77.6948 60.7947 77.8015 58.1707 78.0575 54.672C78.1002 54.1173 78.1642 53.1573 78.2495 51.792C78.3348 50.4267 78.3775 49.2107 78.3775 48.144C78.3775 45.2 78.2282 41.8293 77.9295 38.032C77.6735 33.8507 77.5455 30.7573 77.5455 28.752C77.5455 27.728 77.9082 26.9387 78.6335 26.384C79.4015 25.8293 80.2762 25.552 81.2575 25.552C82.1108 25.552 83.0068 25.7653 83.9455 26.192C87.6148 30.8 92.5855 37.6693 98.8575 46.8L104.874 56.016C104.916 55.3333 104.938 54.3733 104.938 53.136C104.938 50.96 104.895 48.6133 104.81 46.096C104.724 43.5787 104.66 41.872 104.618 40.976C104.404 36.8373 104.298 33.1893 104.298 30.032ZM149.469 54.992C149.469 56.9973 149.042 58.6187 148.189 59.856C147.336 61.0933 145.864 62.3093 143.773 63.504C142.365 64.3573 140.744 65.0187 138.909 65.488C137.074 65.9147 135.218 66.128 133.341 66.128C132.189 66.128 130.845 65.9147 129.309 65.488C127.816 65.0187 126.6 64.5707 125.661 64.144L124.573 63.184C122.653 61.6053 121.309 60.3467 120.541 59.408C119.816 58.4267 119.453 57.232 119.453 55.824C119.453 54.7147 119.709 53.8827 120.221 53.328C120.733 52.7733 121.565 52.496 122.717 52.496C123.314 52.496 123.869 52.688 124.381 53.072C124.893 53.456 125.341 53.9893 125.725 54.672C126.792 56.5493 128.05 57.936 129.501 58.832C130.994 59.6853 132.744 60.112 134.749 60.112C136.626 60.112 138.525 59.536 140.445 58.384C142.024 57.4027 142.813 56.4427 142.813 55.504C142.813 53.84 142.066 52.4533 140.573 51.344C139.122 50.2347 137.032 49.232 134.301 48.336C132.637 47.7387 130.141 46.6293 126.813 45.008C124.552 43.8987 122.866 42.5333 121.757 40.912C120.648 39.2907 120.093 37.584 120.093 35.792C120.093 34.1707 120.648 32.592 121.757 31.056C122.909 29.4773 124.296 28.304 125.917 27.536C126.77 27.1093 128.136 26.6613 130.013 26.192C131.89 25.68 133.298 25.424 134.237 25.424C135.986 25.424 137.501 25.6373 138.781 26.064C140.061 26.448 141.32 27.0027 142.557 27.728C144.434 28.7947 145.821 29.7547 146.717 30.608C147.613 31.4613 148.061 32.528 148.061 33.808C148.061 34.576 147.762 35.2587 147.165 35.856C146.61 36.4533 145.629 36.752 144.221 36.752C143.88 36.752 143.538 36.6027 143.197 36.304C142.856 36.0053 142.429 35.5573 141.917 34.96C141.234 34.064 140.573 33.4667 139.933 33.168C139.762 33.1253 139.058 32.848 137.821 32.336C136.626 31.824 135.133 31.568 133.341 31.568C131.634 31.568 130.12 31.9733 128.797 32.784C127.474 33.552 126.813 34.6827 126.813 36.176C126.813 37.6693 128.157 38.8853 130.845 39.824C133.704 40.9333 136.072 41.8933 137.949 42.704C139.869 43.5147 141.725 44.4747 143.517 45.584C145.565 46.8213 147.058 48.1227 147.997 49.488C148.978 50.8533 149.469 52.688 149.469 54.992ZM184.895 43.088C184.852 42.4053 184.831 41.3813 184.831 40.016V37.584C184.831 35.9627 184.788 34.7467 184.703 33.936C184.617 33.2533 184.575 31.4827 184.575 28.624C184.575 27.6 184.873 26.8107 185.471 26.256C186.111 25.6587 186.964 25.36 188.031 25.36C189.396 25.36 190.313 25.6587 190.783 26.256C191.252 26.8533 191.487 27.8347 191.487 29.2V31.632L191.423 38.672C191.38 40.0373 191.359 42.0853 191.359 44.816L191.423 50.064C191.465 50.8747 191.487 52.0053 191.487 53.456C191.487 54.608 191.529 56.2507 191.615 58.384C191.7 60.3467 191.743 61.8187 191.743 62.8C191.743 63.6107 191.508 64.3573 191.039 65.04C190.612 65.7227 190.015 66.064 189.247 66.064C186.26 66.064 184.767 65.0613 184.767 63.056C184.767 61.9467 184.809 60.7093 184.895 59.344C184.98 58.3627 185.023 56.8693 185.023 54.864C185.023 53.456 184.98 51.4293 184.895 48.784C182.889 48.9547 179.433 49.04 174.527 49.04C171.455 49.04 169.065 49.04 167.359 49.04C165.652 48.9973 164.415 48.8907 163.647 48.72L163.583 56.08C163.583 56.5493 163.689 57.808 163.903 59.856C164.116 61.2213 164.223 62.416 164.223 63.44C164.223 64.08 163.839 64.6987 163.071 65.296C162.345 65.8507 161.663 66.128 161.023 66.128C159.487 66.128 158.441 65.7653 157.887 65.04C157.332 64.272 157.055 63.12 157.055 61.584L156.991 56.528C156.948 55.9307 156.927 55.0987 156.927 54.032C156.927 52.4533 156.884 50.2987 156.799 47.568C156.713 45.0933 156.671 43.3013 156.671 42.192C156.671 40.528 156.713 38.2027 156.799 35.216C156.884 32.4 156.927 30.3093 156.927 28.944C156.927 27.5787 157.268 26.6613 157.951 26.192C158.633 25.7227 159.401 25.488 160.255 25.488C162.644 25.488 163.839 26.2773 163.839 27.856C163.839 30.672 163.775 33.36 163.647 35.92C163.561 39.1627 163.519 41.5307 163.519 43.024C164.756 43.3227 166.057 43.5147 167.423 43.6C168.788 43.6853 170.708 43.728 173.183 43.728C178.217 43.728 182.121 43.5147 184.895 43.088Z" fill="white"/>
<path d="M49.104 77.384C48.688 77.384 48.336 77.3733 48.048 77.352C47.7707 77.32 47.4027 77.272 46.944 77.208L46.928 78.888C46.9173 79.176 46.912 79.5867 46.912 80.12C46.912 80.3973 46.832 80.616 46.672 80.776C46.5227 80.9253 46.352 81 46.16 81C45.808 81 45.5467 80.9573 45.376 80.872C45.2053 80.776 45.12 80.6107 45.12 80.376C45.12 80.0667 45.1467 79.6293 45.2 79.064C45.3173 77.848 45.376 76.6 45.376 75.32C45.376 74.1253 45.3387 73 45.264 71.944C45.2747 71.7947 45.3493 71.624 45.488 71.432C45.6373 71.24 45.824 71.1333 46.048 71.112C46.2933 71.112 46.6827 71.0693 47.216 70.984C47.7707 70.8987 48.192 70.856 48.48 70.856C49.3547 70.856 50.032 70.9413 50.512 71.112C51.0027 71.2827 51.4933 71.5653 51.984 71.96C52.5173 72.792 52.784 73.3787 52.784 73.72C52.784 74.4347 52.64 75.0693 52.352 75.624C52.064 76.1787 51.6427 76.6107 51.088 76.92C50.5333 77.2293 49.872 77.384 49.104 77.384ZM48.736 72.216C48.3947 72.216 48.096 72.2373 47.84 72.28C47.5947 72.312 47.296 72.3707 46.944 72.456C46.9867 73.4373 47.008 74.152 47.008 74.6C47.008 75.0587 46.992 75.4427 46.96 75.752C47.4187 75.848 47.7813 75.912 48.048 75.944C48.3147 75.9653 48.6133 75.976 48.944 75.976C49.7333 75.976 50.288 75.7733 50.608 75.368C50.9387 74.952 51.104 74.472 51.104 73.928C51.104 73.768 51.056 73.5707 50.96 73.336C50.864 73.1013 50.7787 72.9467 50.704 72.872C50.416 72.616 50.1333 72.4453 49.856 72.36C49.5893 72.264 49.216 72.216 48.736 72.216ZM55.9726 71.72C55.9726 72.0293 55.962 72.44 55.9406 72.952L55.9246 73.992C55.9246 75.0053 55.9993 75.8533 56.1486 76.536C56.362 77.496 56.682 78.2373 57.1086 78.76C57.5033 79.2187 57.9886 79.448 58.5646 79.448C59.0126 79.448 59.4126 79.3147 59.7646 79.048C60.1166 78.7707 60.3886 78.4293 60.5806 78.024C60.9006 77.3627 61.0606 76.5467 61.0606 75.576C61.0606 74.9893 61.0233 74.296 60.9486 73.496C60.8846 72.6 60.8526 71.928 60.8526 71.48C60.8526 71.2453 60.9913 71.096 61.2686 71.032C61.546 70.9573 61.834 70.92 62.1326 70.92C62.2393 70.92 62.362 70.9893 62.5006 71.128C62.6393 71.2667 62.7086 71.416 62.7086 71.576C62.7086 71.896 62.6926 72.2 62.6606 72.488C62.6393 72.808 62.6286 73.032 62.6286 73.16C62.6286 73.5653 62.65 74.1307 62.6926 74.856C62.7033 75.0373 62.714 75.256 62.7246 75.512C62.7353 75.768 62.7406 76.0613 62.7406 76.392C62.7406 77.1173 62.5646 77.8427 62.2126 78.568C61.8713 79.2827 61.3913 79.8747 60.7726 80.344C60.154 80.8027 59.4553 81.032 58.6766 81.032C57.482 81.032 56.5486 80.648 55.8766 79.88C55.2046 79.1013 54.746 78.0987 54.5006 76.872C54.362 76.168 54.2713 75.432 54.2286 74.664C54.1966 73.896 54.1806 72.8667 54.1806 71.576C54.1806 71.4053 54.2606 71.2453 54.4206 71.096C54.5913 70.9467 54.7726 70.872 54.9646 70.872C55.6366 70.872 55.9726 71.1547 55.9726 71.72ZM72.982 79.496C73.142 79.496 73.27 79.5653 73.366 79.704C73.4727 79.8427 73.526 79.992 73.526 80.152C73.526 80.4293 73.4193 80.6427 73.206 80.792C73.0033 80.9307 72.7367 81 72.406 81C71.9153 81 71.5207 80.9147 71.222 80.744C70.9233 80.5733 70.6567 80.2533 70.422 79.784C70.3473 79.6133 70.2567 79.336 70.15 78.952C70.054 78.568 69.9527 78.264 69.846 78.04C69.75 77.8053 69.5847 77.608 69.35 77.448C69.126 77.288 68.8167 77.2027 68.422 77.192L68.07 77.208C67.7073 77.2293 67.4353 77.24 67.254 77.24C67.0407 77.24 66.838 77.224 66.646 77.192C66.6673 78.6 66.678 79.6773 66.678 80.424C66.678 80.616 66.582 80.776 66.39 80.904C66.2087 81.032 66.0007 81.096 65.766 81.096C65.4887 81.096 65.27 80.9893 65.11 80.776C64.982 80.52 64.918 80.1413 64.918 79.64C64.918 79.4693 64.9287 79.224 64.95 78.904L64.966 78.2C64.966 77.5493 64.9927 76.8507 65.046 76.104C65.0887 75.2507 65.11 74.6267 65.11 74.232C65.11 73.9013 65.078 73.4587 65.014 72.904C65.0033 72.7973 64.9873 72.6267 64.966 72.392C64.9447 72.1467 64.934 71.928 64.934 71.736C64.934 71.5973 64.9927 71.4693 65.11 71.352C65.2273 71.2347 65.3447 71.16 65.462 71.128C66.3367 70.9893 67.2007 70.92 68.054 70.92C69.4407 70.92 70.5767 71.1813 71.462 71.704C72.3473 72.2267 72.79 73.0267 72.79 74.104C72.79 74.424 72.7047 74.76 72.534 75.112C72.374 75.4533 72.1713 75.72 71.926 75.912C71.51 76.2747 71.062 76.5093 70.582 76.616C70.6033 76.6373 70.7207 76.744 70.934 76.936C71.1473 77.128 71.2913 77.3307 71.366 77.544L71.574 78.184C71.7553 78.7067 71.8993 79.0693 72.006 79.272C72.1127 79.464 72.2513 79.56 72.422 79.56C72.582 79.56 72.678 79.5493 72.71 79.528C72.7527 79.5067 72.8433 79.496 72.982 79.496ZM66.63 75.832C66.95 75.8533 67.174 75.864 67.302 75.864C67.494 75.864 67.7607 75.8533 68.102 75.832L68.854 75.816C69.1847 75.816 69.526 75.7413 69.878 75.592C70.23 75.4427 70.5233 75.2347 70.758 74.968C70.9927 74.6907 71.11 74.3813 71.11 74.04C71.11 73.432 70.8647 72.9893 70.374 72.712C69.8833 72.4347 69.1207 72.296 68.086 72.296C67.6913 72.296 67.2273 72.3493 66.694 72.456C66.7153 72.84 66.726 73.1173 66.726 73.288C66.726 73.4907 66.7153 73.7947 66.694 74.2L66.678 74.664C66.646 75.112 66.63 75.5013 66.63 75.832ZM82.1039 79.976C82.1145 80.2 82.0879 80.36 82.0239 80.456C81.9599 80.5413 81.8319 80.632 81.6399 80.728C81.3519 80.8667 81.0105 80.9573 80.6159 81C80.2319 81.0427 79.7359 81.064 79.1279 81.064H78.0399C77.0905 81.064 76.3865 80.904 75.9279 80.584C75.4692 80.2533 75.1812 79.8587 75.0639 79.4C74.9465 78.9413 74.8772 78.3493 74.8559 77.624C74.8452 77.3787 74.8399 77.016 74.8399 76.536C74.8399 75.4907 74.9305 74.0933 75.1119 72.344C75.1652 71.832 75.3519 71.464 75.6719 71.24C75.9919 71.0053 76.3545 70.888 76.7599 70.888C77.0905 70.888 77.6292 70.8773 78.3759 70.856L79.7839 70.84C80.3599 70.84 80.7759 70.856 81.0319 70.888C81.3519 70.952 81.5919 71.0267 81.7519 71.112C81.9119 71.1867 81.9972 71.32 82.0079 71.512C82.0079 71.7253 81.9385 71.9333 81.7999 72.136C81.6612 72.3387 81.4479 72.44 81.1599 72.44C80.8292 72.44 80.3545 72.4187 79.7359 72.376C79.1172 72.3333 78.6479 72.312 78.3279 72.312C78.0399 72.312 77.7785 72.328 77.5439 72.36C77.2452 72.3813 77.0319 72.4187 76.9039 72.472C76.7759 72.5253 76.7065 72.616 76.6959 72.744C76.5785 73.9067 76.5305 74.7173 76.5519 75.176C76.7972 75.208 77.0425 75.224 77.2879 75.224C77.5332 75.224 77.8692 75.2027 78.2959 75.16C78.4025 75.1493 78.5359 75.1387 78.6959 75.128C78.8559 75.1173 79.0372 75.112 79.2399 75.112C79.3572 75.112 79.5439 75.1227 79.7999 75.144L80.2959 75.16C80.7865 75.16 81.0319 75.336 81.0319 75.688C81.0319 75.9013 80.9732 76.072 80.8559 76.2C80.7385 76.328 80.5305 76.424 80.2319 76.488C79.8265 76.5627 79.1705 76.6 78.2639 76.6H77.2879C77.0852 76.6 76.8345 76.5893 76.5359 76.568C76.5252 76.76 76.5199 77.0373 76.5199 77.4C76.5199 77.8693 76.5252 78.2 76.5359 78.392C76.5679 79.1387 77.0852 79.512 78.0879 79.512C78.4292 79.512 78.7919 79.5227 79.1759 79.544L79.7679 79.56C80.0452 79.56 80.2745 79.5333 80.4559 79.48C80.6372 79.416 80.8132 79.3627 80.9839 79.32C81.1652 79.2667 81.3305 79.24 81.4799 79.24C81.6825 79.24 81.8372 79.32 81.9439 79.48C82.0505 79.6293 82.1039 79.7947 82.1039 79.976ZM88.2668 71.32C88.6614 72.4933 89.1094 73.784 89.6108 75.192C90.1121 76.5893 90.5708 77.8 90.9868 78.824C91.2961 77.832 91.7228 76.6427 92.2668 75.256C92.8108 73.8587 93.3174 72.6 93.7868 71.48C93.9254 71.1493 94.1601 70.984 94.4908 70.984C94.8001 70.984 95.0348 71.048 95.1948 71.176C95.3548 71.2933 95.4348 71.5013 95.4348 71.8C95.4348 71.9173 95.4188 72.0187 95.3868 72.104C95.3548 72.1893 95.3068 72.3013 95.2428 72.44C94.9121 73.0907 94.5814 73.8427 94.2508 74.696C93.9201 75.5387 93.5148 76.6107 93.0348 77.912C93.0561 77.8587 92.9068 78.2587 92.5868 79.112L92.0588 80.488C91.9948 80.6587 91.8881 80.792 91.7388 80.888C91.6001 80.9733 91.4401 81.016 91.2588 81.016C91.0774 81.016 90.8748 80.9733 90.6508 80.888C90.4374 80.792 90.2828 80.696 90.1868 80.6C89.8241 79.9067 89.3601 78.904 88.7948 77.592C88.2401 76.28 87.7601 75.0693 87.3548 73.96L87.1148 73.304C86.9548 72.856 86.8374 72.5147 86.7628 72.28C86.6881 72.0347 86.6508 71.8373 86.6508 71.688C86.6508 71.4747 86.7681 71.304 87.0028 71.176C87.2481 71.048 87.4828 70.984 87.7068 70.984C87.8241 70.984 87.9361 71.0107 88.0428 71.064C88.1494 71.1173 88.2241 71.2027 88.2668 71.32ZM103.401 78.968C103.603 78.968 103.753 79.048 103.849 79.208C103.955 79.3573 104.009 79.5227 104.009 79.704C104.009 79.928 103.971 80.088 103.897 80.184C103.833 80.2693 103.699 80.36 103.497 80.456C103.07 80.6587 102.59 80.8027 102.057 80.888C101.534 80.9733 100.878 81.016 100.089 81.016C99.1393 81.016 98.4086 80.856 97.8966 80.536C97.3953 80.2053 97.0646 79.7947 96.9046 79.304C96.7446 78.8133 96.6646 78.2427 96.6646 77.592V76.584C96.6646 75.8907 96.6806 75.224 96.7126 74.584C96.7553 73.944 96.8353 73.1973 96.9526 72.344C97.0273 71.832 97.23 71.464 97.5606 71.24C97.8913 71.0053 98.254 70.888 98.6486 70.888C99.0753 70.888 99.662 70.8773 100.409 70.856L101.801 70.84C102.366 70.84 102.782 70.856 103.049 70.888C103.369 70.952 103.603 71.0267 103.753 71.112C103.913 71.1867 103.993 71.32 103.993 71.512C103.993 71.7253 103.918 71.9333 103.769 72.136C103.63 72.3387 103.417 72.44 103.129 72.44C102.798 72.44 102.323 72.4187 101.705 72.376C101.086 72.3333 100.622 72.312 100.313 72.312C99.9286 72.312 99.6193 72.328 99.3846 72.36C99.086 72.3813 98.8726 72.4187 98.7446 72.472C98.6166 72.5253 98.542 72.616 98.5206 72.744C98.3713 73.8427 98.2966 74.6533 98.2966 75.176C98.5313 75.208 98.782 75.224 99.0486 75.224C99.39 75.224 99.9606 75.1867 100.761 75.112C101.347 75.0587 101.833 75.032 102.217 75.032C102.462 75.032 102.643 75.0747 102.761 75.16C102.878 75.2453 102.937 75.3627 102.937 75.512C102.937 75.7467 102.878 75.928 102.761 76.056C102.643 76.184 102.43 76.28 102.121 76.344C101.747 76.4187 101.262 76.4773 100.665 76.52C100.078 76.5627 99.518 76.584 98.9846 76.584C98.782 76.584 98.5313 76.5733 98.2326 76.552C98.2326 77.256 98.2646 77.8107 98.3286 78.216C98.4033 78.6213 98.5526 78.936 98.7766 79.16C99.0113 79.384 99.3633 79.496 99.8326 79.496C100.889 79.496 101.731 79.4 102.361 79.208C102.809 79.048 103.155 78.968 103.401 78.968ZM112.996 73.304C112.537 72.9733 112.143 72.7333 111.812 72.584C111.481 72.424 111.097 72.344 110.66 72.344C109.785 72.344 109.033 72.568 108.404 73.016C107.924 73.368 107.567 73.8267 107.332 74.392C107.097 74.9573 106.98 75.592 106.98 76.296C106.98 76.968 107.135 77.56 107.444 78.072C107.753 78.5733 108.153 78.9573 108.644 79.224C109.135 79.4907 109.647 79.624 110.18 79.624C110.713 79.624 111.172 79.544 111.556 79.384C111.951 79.2133 112.265 78.9947 112.5 78.728C112.863 78.2693 113.044 77.6613 113.044 76.904C113.044 76.7973 112.959 76.7227 112.788 76.68C112.617 76.6373 112.372 76.616 112.052 76.616L110.9 76.632C110.591 76.632 110.345 76.5733 110.164 76.456C109.983 76.3387 109.892 76.1893 109.892 76.008C109.892 75.752 109.977 75.5653 110.148 75.448C110.319 75.32 110.548 75.256 110.836 75.256C111.177 75.256 111.636 75.2773 112.212 75.32C112.788 75.3627 113.204 75.384 113.46 75.384C113.833 75.384 114.132 75.5013 114.356 75.736C114.591 75.9707 114.708 76.312 114.708 76.76C114.708 77.176 114.617 77.6613 114.436 78.216C114.255 78.7707 113.999 79.2667 113.668 79.704C113.348 80.1307 112.873 80.456 112.244 80.68C111.625 80.8933 110.937 81 110.18 81C109.551 81 108.943 80.8987 108.356 80.696C107.769 80.4933 107.279 80.2107 106.884 79.848C106.393 79.3893 106.004 78.8453 105.716 78.216C105.439 77.576 105.3 76.9413 105.3 76.312C105.3 75.3947 105.513 74.504 105.94 73.64C106.377 72.7653 106.964 72.088 107.7 71.608C108.02 71.3947 108.468 71.2187 109.044 71.08C109.62 70.9413 110.148 70.872 110.628 70.872C111.375 70.872 112.031 70.9893 112.596 71.224C113.161 71.448 113.593 71.7733 113.892 72.2C114.02 72.392 114.084 72.5627 114.084 72.712C114.084 72.8827 114.009 73.0427 113.86 73.192C113.711 73.3413 113.561 73.416 113.412 73.416C113.348 73.416 113.273 73.4053 113.188 73.384C113.103 73.3627 113.039 73.336 112.996 73.304ZM123.259 78.824C123.462 78.824 123.611 78.904 123.707 79.064C123.814 79.2133 123.867 79.3787 123.867 79.56C123.867 79.784 123.83 79.944 123.755 80.04C123.691 80.1253 123.563 80.216 123.371 80.312C122.923 80.5253 122.368 80.696 121.707 80.824C121.046 80.952 120.336 81.016 119.579 81.016C118.63 81.016 117.931 80.856 117.483 80.536C117.046 80.216 116.774 79.832 116.667 79.384C116.571 78.9253 116.523 78.328 116.523 77.592C116.523 76.8027 116.555 76.0293 116.619 75.272C116.683 74.504 116.795 73.528 116.955 72.344C117.03 71.832 117.232 71.464 117.563 71.24C117.894 71.0053 118.256 70.888 118.651 70.888C118.982 70.888 119.52 70.8773 120.267 70.856L121.659 70.84C122.235 70.84 122.651 70.856 122.907 70.888C123.227 70.952 123.462 71.0267 123.611 71.112C123.771 71.1867 123.851 71.32 123.851 71.512C123.851 71.7253 123.776 71.9333 123.627 72.136C123.488 72.3387 123.275 72.44 122.987 72.44C122.656 72.44 122.182 72.4187 121.563 72.376C120.944 72.3333 120.48 72.312 120.171 72.312C119.904 72.312 119.643 72.328 119.387 72.36C119.088 72.3813 118.875 72.4187 118.747 72.472C118.619 72.5253 118.544 72.616 118.523 72.744C118.374 73.8427 118.299 74.6533 118.299 75.176C118.544 75.208 118.784 75.224 119.019 75.224C119.318 75.224 119.638 75.208 119.979 75.176C120.32 75.144 120.539 75.1227 120.635 75.112C121.2 75.0587 121.686 75.032 122.091 75.032C122.326 75.032 122.502 75.0747 122.619 75.16C122.747 75.2453 122.811 75.3627 122.811 75.512C122.811 75.7467 122.747 75.928 122.619 76.056C122.502 76.184 122.288 76.28 121.979 76.344C121.606 76.4187 121.142 76.4773 120.587 76.52C120.043 76.5627 119.51 76.584 118.987 76.584C118.806 76.584 118.555 76.5733 118.235 76.552C118.203 77.2027 118.187 77.8053 118.187 78.36C118.187 79.1173 118.688 79.496 119.691 79.496C120.224 79.496 120.667 79.4587 121.019 79.384C121.371 79.3093 121.776 79.2027 122.235 79.064C122.662 78.904 123.003 78.824 123.259 78.824ZM124.551 71.672C124.551 71.2133 124.887 70.984 125.559 70.984C125.847 70.984 126.396 70.9947 127.207 71.016C128.103 71.0587 128.78 71.08 129.239 71.08C129.612 71.08 130.066 71.0587 130.599 71.016C130.962 70.9947 131.191 70.984 131.287 70.984C131.874 71.0053 132.37 71.112 132.775 71.304C132.892 71.3573 132.988 71.4213 133.063 71.496C133.138 71.5707 133.175 71.6933 133.175 71.864C133.175 72.0987 133.1 72.3013 132.951 72.472C132.802 72.632 132.62 72.712 132.407 72.712C132.172 72.712 131.831 72.68 131.383 72.616C130.988 72.5413 130.642 72.504 130.343 72.504C130.055 72.504 129.836 72.5093 129.687 72.52C129.655 72.872 129.639 73.7147 129.639 75.048C129.639 76.6373 129.687 78.248 129.783 79.88L129.815 80.344C129.815 80.7813 129.564 81 129.063 81C128.668 81 128.402 80.9093 128.263 80.728C128.124 80.536 128.055 80.248 128.055 79.864C128.055 79.1067 128.034 78.1627 127.991 77.032C127.948 76.0933 127.927 75.4267 127.927 75.032C127.927 74.7653 127.959 73.9493 128.023 72.584L126.151 72.6C125.554 72.6 125.138 72.5467 124.903 72.44C124.668 72.3227 124.551 72.0667 124.551 71.672ZM141.792 80.76C141.653 80.5787 141.536 80.3813 141.44 80.168C141.344 79.944 141.242 79.6773 141.136 79.368C141.114 79.3147 141.05 79.1547 140.944 78.888C140.848 78.6213 140.736 78.392 140.608 78.2C139.936 78.296 139.386 78.344 138.96 78.344C138.725 78.344 138.464 78.3387 138.176 78.328C137.898 78.3067 137.69 78.296 137.552 78.296C137.018 78.2533 136.592 78.232 136.272 78.232C136.144 78.4027 136.032 78.584 135.936 78.776C135.85 78.968 135.738 79.256 135.6 79.64C135.408 80.1947 135.242 80.5893 135.104 80.824C135.008 80.984 134.821 81.064 134.544 81.064C134.309 81.064 134.09 81.016 133.888 80.92C133.696 80.8133 133.6 80.6693 133.6 80.488C133.685 80.0827 133.818 79.656 134 79.208C134.192 78.7493 134.464 78.1413 134.816 77.384L135.456 75.816C135.808 74.92 136.128 74.152 136.416 73.512C136.714 72.872 137.104 72.1147 137.584 71.24C137.648 71.112 137.754 71.0053 137.904 70.92C138.053 70.824 138.218 70.776 138.4 70.776C138.602 70.776 138.746 70.792 138.832 70.824C138.928 70.8453 139.002 70.888 139.056 70.952C139.109 71.0053 139.189 71.1227 139.296 71.304C139.658 71.8693 139.968 72.4507 140.224 73.048C140.49 73.6453 140.826 74.472 141.232 75.528L141.568 76.376C141.866 77.144 142.122 77.7893 142.336 78.312C142.56 78.824 142.805 79.2933 143.072 79.72C143.242 79.9973 143.328 80.1893 143.328 80.296C143.328 80.552 143.248 80.7493 143.088 80.888C142.938 81.016 142.741 81.08 142.496 81.08C142.186 81.08 141.952 80.9733 141.792 80.76ZM140.144 76.888C139.973 76.5253 139.728 75.896 139.408 75C139.077 74.04 138.746 73.2773 138.416 72.712C138.213 73.224 137.914 73.8853 137.52 74.696C137.253 75.1973 136.949 75.9227 136.608 76.872C137.29 76.9573 138.026 77 138.816 77C139.381 77 139.824 76.9627 140.144 76.888ZM143.754 71.672C143.754 71.2133 144.09 70.984 144.762 70.984C145.05 70.984 145.599 70.9947 146.41 71.016C147.306 71.0587 147.983 71.08 148.442 71.08C148.815 71.08 149.269 71.0587 149.802 71.016C150.165 70.9947 150.394 70.984 150.49 70.984C151.077 71.0053 151.573 71.112 151.978 71.304C152.095 71.3573 152.191 71.4213 152.266 71.496C152.341 71.5707 152.378 71.6933 152.378 71.864C152.378 72.0987 152.303 72.3013 152.154 72.472C152.005 72.632 151.823 72.712 151.61 72.712C151.375 72.712 151.034 72.68 150.586 72.616C150.191 72.5413 149.845 72.504 149.546 72.504C149.258 72.504 149.039 72.5093 148.89 72.52C148.858 72.872 148.842 73.7147 148.842 75.048C148.842 76.6373 148.89 78.248 148.986 79.88L149.018 80.344C149.018 80.7813 148.767 81 148.266 81C147.871 81 147.605 80.9093 147.466 80.728C147.327 80.536 147.258 80.248 147.258 79.864C147.258 79.1067 147.237 78.1627 147.194 77.032C147.151 76.0933 147.13 75.4267 147.13 75.032C147.13 74.7653 147.162 73.9493 147.226 72.584L145.354 72.6C144.757 72.6 144.341 72.5467 144.106 72.44C143.871 72.3227 143.754 72.0667 143.754 71.672ZM156.275 72.168C156.232 73.0853 156.211 73.7413 156.211 74.136C156.211 75 156.238 75.9547 156.291 77C156.334 78.2373 156.355 79.1547 156.355 79.752C156.76 79.6987 157.006 79.672 157.091 79.672C157.326 79.672 157.512 79.7307 157.651 79.848C157.79 79.9653 157.859 80.1467 157.859 80.392C157.859 80.552 157.795 80.6747 157.667 80.76C157.539 80.8453 157.315 80.9093 156.995 80.952C156.686 80.984 156.232 81 155.635 81C154.974 81 154.478 80.9787 154.147 80.936C153.816 80.8933 153.587 80.8133 153.459 80.696C153.331 80.568 153.267 80.3813 153.267 80.136C153.267 79.9547 153.326 79.832 153.443 79.768C153.56 79.704 153.726 79.672 153.939 79.672L154.275 79.688L154.803 79.72L154.723 77.832C154.659 76.808 154.627 75.8693 154.627 75.016C154.627 74.5573 154.643 73.928 154.675 73.128L154.707 72.248C154.344 72.2693 154.062 72.28 153.859 72.28C153.624 72.28 153.464 72.2373 153.379 72.152C153.304 72.0667 153.267 71.8907 153.267 71.624C153.267 71.3253 153.47 71.1333 153.875 71.048C154.291 70.9627 154.92 70.92 155.763 70.92C156.414 70.92 156.899 70.9413 157.219 70.984C157.55 71.0267 157.715 71.1227 157.715 71.272C157.715 71.6347 157.635 71.8747 157.475 71.992C157.326 72.0987 157.032 72.152 156.595 72.152L156.275 72.168ZM164.068 70.824C164.782 70.824 165.433 70.9147 166.02 71.096C166.606 71.2667 167.086 71.5227 167.46 71.864C168.132 72.472 168.601 73.1387 168.868 73.864C169.145 74.5787 169.284 75.496 169.284 76.616C169.284 76.8507 169.252 77.064 169.188 77.256C169.134 77.448 169.044 77.6933 168.916 77.992C168.756 78.3227 168.66 78.584 168.628 78.776C168.414 79.1493 168.062 79.5067 167.572 79.848C167.092 80.1893 166.569 80.4667 166.004 80.68C165.438 80.8933 164.942 81 164.516 81C162.457 81 160.99 80.296 160.116 78.888C159.87 78.4933 159.678 78.0827 159.54 77.656C159.412 77.2293 159.348 76.8133 159.348 76.408C159.348 75.32 159.54 74.376 159.924 73.576C160.318 72.7653 160.862 72.136 161.556 71.688C161.972 71.4427 162.404 71.24 162.852 71.08C163.31 70.9093 163.716 70.824 164.068 70.824ZM161.012 76.456C161.012 77.032 161.14 77.5067 161.396 77.88C161.662 78.2533 162.068 78.6587 162.612 79.096C163.06 79.2667 163.364 79.3787 163.524 79.432C163.684 79.4747 163.865 79.496 164.068 79.496C165.145 79.496 166.004 79.2027 166.644 78.616C167.284 78.0293 167.604 77.224 167.604 76.2C167.604 75.3893 167.513 74.7493 167.332 74.28C167.15 73.8107 166.825 73.3893 166.356 73.016C166.11 72.8133 165.796 72.664 165.412 72.568C165.038 72.472 164.633 72.424 164.196 72.424C163.534 72.424 162.964 72.6213 162.484 73.016C162.004 73.4 161.636 73.9013 161.38 74.52C161.134 75.1387 161.012 75.784 161.012 76.456ZM177.949 72.008C177.949 71.6987 178.019 71.432 178.157 71.208C178.307 70.9733 178.525 70.856 178.813 70.856C179.059 70.856 179.277 70.904 179.469 71C179.661 71.096 179.757 71.256 179.757 71.48C179.757 71.9173 179.736 72.5307 179.693 73.32C179.651 74.088 179.629 74.6587 179.629 75.032C179.629 75.6187 179.651 76.4027 179.693 77.384C179.736 78.3227 179.757 79.0107 179.757 79.448C179.757 79.8 179.752 80.0613 179.741 80.232C179.741 80.4027 179.645 80.5733 179.453 80.744C179.272 80.904 178.989 80.984 178.605 80.984C178.403 80.984 178.227 80.952 178.077 80.888C177.939 80.8133 177.843 80.7333 177.789 80.648C177.288 80.04 176.557 79.0053 175.597 77.544C174.52 75.912 173.64 74.664 172.957 73.8C173.043 74.568 173.085 75.5067 173.085 76.616C173.085 77.1067 173.075 77.7467 173.053 78.536C173.043 79.3147 173.021 79.8267 172.989 80.072C172.947 80.3813 172.851 80.6213 172.701 80.792C172.563 80.952 172.339 81.032 172.029 81.032C171.795 81.032 171.619 80.968 171.501 80.84C171.395 80.7013 171.331 80.4667 171.309 80.136C171.299 79.6987 171.325 79.0427 171.389 78.168C171.4 78.0293 171.416 77.7893 171.437 77.448C171.459 77.1067 171.469 76.8027 171.469 76.536C171.469 75.8 171.432 74.9573 171.357 74.008C171.293 72.9627 171.261 72.1893 171.261 71.688C171.261 71.432 171.352 71.2347 171.533 71.096C171.725 70.9573 171.944 70.888 172.189 70.888C172.403 70.888 172.627 70.9413 172.861 71.048C173.779 72.2 175.021 73.9173 176.589 76.2L178.093 78.504C178.104 78.3333 178.109 78.0933 178.109 77.784C178.109 77.24 178.099 76.6533 178.077 76.024C178.056 75.3947 178.04 74.968 178.029 74.744C177.976 73.7093 177.949 72.7973 177.949 72.008Z" fill="white"/>
</svg>
